<?xml version="1.0" encoding="UTF-8" standalone="no"?>
<svg width="426px" height="152px" viewBox="0 0 426 152" version="1.1" xmlns="http://www.w3.org/2000/svg" xmlns:xlink="http://www.w3.org/1999/xlink">
    <!-- Generator: Sketch 39.1 (31720) - http://www.bohemiancoding.com/sketch -->
    <title>Shape</title>
    <desc>Created with Sketch.</desc>
    <defs></defs>
    <g id="Page-1" stroke="none" stroke-width="1" fill="none" fill-rule="evenodd">
        <g id="Capa-1" fill="#EEEEEE">
            <path d="M386.08,0.124 L425.109,0.124 L425.109,14.061 L407.335,14.061 L407.335,27.888 L422.012,27.888 L422.012,41.713 L407.335,41.713 L407.335,59.837 L425.597,59.837 L425.597,73.634 L386.08,73.634 L386.08,0.124 L386.08,0.124 Z M295.375,63.491 C293.38,64.043 291.399,63.631 289.836,62.145 C287.45,60.345 275.85,61.957 272.913,62.606 L272.809,62.606 C260.308,66.003 248.184,70.433 236.242,75.462 C250.054,81.419 263.873,87.488 277.684,93.508 L277.88,93.599 L278.256,92.922 L279.115,92.329 C290.136,84.809 303.104,84.21 305.071,101.035 L305.846,107.76 L303.53,107.083 L305.336,108.45 L305.057,110.933 C304.36,116.912 302.141,123.273 296.281,125.848 C293.652,126.991 290.784,127.222 287.981,126.81 C285.916,126.51 283.83,125.848 281.939,124.962 C280.342,124.487 279.219,121.167 278.416,119.765 C277.238,118.474 274.601,116.667 273.59,116.026 C271.706,114.826 269.669,113.682 267.668,112.629 C266.795,112.175 265.456,111.617 264.57,111.122 L264.465,111.066 L264.27,110.961 C247.117,102.953 230.208,94.115 213.027,85.932 C195.838,94.115 178.915,102.953 161.748,110.968 L161.546,111.066 L161.441,111.136 C160.555,111.617 159.202,112.182 158.337,112.629 C156.335,113.682 154.34,114.826 152.401,116.026 C151.424,116.667 148.773,118.474 147.588,119.765 C146.771,121.153 145.655,124.487 144.065,124.962 C142.182,125.848 140.096,126.51 138.01,126.81 C135.276,127.222 132.346,126.991 129.736,125.848 C123.877,123.273 121.645,116.912 120.955,110.961 L120.683,108.45 L122.468,107.083 L120.18,107.76 L120.926,101.035 C122.901,84.195 135.875,84.809 146.862,92.329 L147.734,92.936 L148.118,93.634 L148.341,93.529 C162.132,87.488 175.937,81.419 189.763,75.462 C177.82,70.433 165.697,66.003 153.21,62.606 L153.091,62.606 C150.155,61.957 138.568,60.345 136.182,62.145 C134.634,63.617 132.639,64.043 130.651,63.491 C128.23,63.331 125.691,62.627 123.514,61.559 C120.759,60.178 118.38,58.058 117.208,55.163 C115.151,50.245 116.965,44.853 119.455,40.479 L120.612,38.177 L126.409,38.051 L124.833,32.875 C138.101,17.661 150.538,24.944 153.97,40.646 L154.375,40.786 L154.389,40.862 L155.7,41.386 C174.89,49.17 193.983,57.228 213.006,65.403 C232.022,57.228 251.128,49.17 270.311,41.386 L271.615,40.862 L271.615,40.786 L272.027,40.646 C275.459,24.944 287.89,17.661 301.193,32.861 L299.609,38.051 L305.399,38.177 L306.585,40.479 C309.027,44.853 310.84,50.245 308.789,55.149 C307.61,58.058 305.266,60.164 302.504,61.559 C300.314,62.634 297.838,63.331 295.375,63.491 L295.375,63.491 Z M60.238,138.118 L60.238,80.924 L80.628,80.924 L80.628,141.194 L67.479,151.385 L44.696,151.385 L31.289,141.194 L31.289,80.924 L51.658,80.924 L51.658,138.118 L60.238,138.118 L60.238,138.118 Z M84.262,80.924 L104.645,80.924 L104.645,138.118 L122.81,138.118 L122.81,151.385 L84.262,151.385 L84.262,80.924 L84.262,80.924 Z M115.374,80.924 L158.449,80.924 L158.449,84.74 L148.934,88.89 C136.608,80.568 123.138,80.966 118.408,94.136 L115.374,94.136 L115.374,80.924 L115.374,80.924 Z M147.05,127.899 L147.05,151.385 L126.898,151.385 L126.898,128.923 C127.296,129.112 127.679,129.335 128.126,129.509 C131.446,130.954 135.059,131.26 138.603,130.78 C140.968,130.396 143.374,129.67 145.564,128.651 C146.123,128.47 146.59,128.219 147.05,127.899 L147.05,127.899 Z M162.097,80.924 L167.231,80.924 L162.097,83.128 L162.097,80.924 L162.097,80.924 Z M182.459,105.401 L182.459,151.385 L162.097,151.385 L162.097,115.265 C162.432,115.098 162.773,114.958 163.109,114.735 L163.457,114.575 C169.854,111.603 176.153,108.506 182.459,105.401 L182.459,105.401 Z M220.428,114.909 L224.055,95.705 C232.977,100.135 241.878,104.579 250.891,108.959 L250.891,151.385 L232.349,151.385 L232.349,106.665 L231.366,106.665 L222.988,151.385 L215.405,151.385 L206.895,106.665 L205.939,106.665 L205.939,151.385 L187.517,151.385 L187.517,102.876 C195.992,98.691 204.453,94.45 213.027,90.355 L213.243,90.446 L218.433,114.909 L220.428,114.909 L220.428,114.909 Z M287.311,138.376 L275.536,138.376 L273.792,151.385 L253.912,151.385 L260.601,113.668 L262.561,114.568 L262.854,114.721 C263.845,115.265 264.842,115.67 265.84,116.214 C267.73,117.177 269.621,118.237 271.448,119.402 C272.473,120.072 274.204,121.195 275.173,122.15 C276.54,124.675 277.419,127.577 280.453,128.651 C282.637,129.684 285.03,130.396 287.416,130.78 C290.966,131.26 294.607,130.954 297.865,129.509 C300.397,128.386 302.434,126.768 304.039,124.815 L308.908,151.385 L288.909,151.385 L287.311,138.376 L287.311,138.376 Z M265.868,83.965 L266.419,80.778 L295.891,80.778 L296.421,83.673 C290.68,82.486 283.725,84.447 277.085,88.877 L265.868,83.965 L265.868,83.965 Z M303.557,80.924 L346.66,80.924 L346.66,94.136 L335.234,94.136 L335.234,151.385 L315.081,151.385 L315.081,94.136 L307.61,94.136 C306.613,91.381 305.224,89.163 303.557,87.488 L303.557,80.924 L303.557,80.924 Z M350.741,80.778 L388.179,80.778 L388.179,94.136 L371.124,94.136 L371.124,107.39 L385.236,107.39 L385.236,120.671 L371.124,120.671 L371.124,138.118 L388.703,138.118 L388.703,151.385 L350.741,151.385 L350.741,80.778 L350.741,80.778 Z M30.326,30.057 L30.326,0.25 L51.309,0.25 L51.309,73.634 L30.326,73.634 L30.326,43.862 L21.621,43.862 L21.621,73.634 L0.4,73.634 L0.4,0.25 L21.621,0.25 L21.621,30.057 L30.326,30.057 L30.326,30.057 Z M88.615,60.095 L76.331,60.095 L74.531,73.634 L53.827,73.634 L66.879,0.124 L97.558,0.124 L111.118,73.634 L90.282,73.634 L88.615,60.095 L88.615,60.095 Z M81.095,15.98 L77.872,46.282 L87.074,46.282 L83.097,15.98 L81.095,15.98 L81.095,15.98 Z M135.011,67.321 L135.011,73.634 L113.798,73.634 L113.798,57.332 C115.416,60.813 118.269,63.429 121.743,65.138 C124.275,66.407 127.114,67.196 129.967,67.468 C131.676,67.851 133.42,67.803 135.011,67.321 L135.011,67.321 Z M113.798,43.129 L113.798,0.25 L149.973,0.25 L164.162,10.985 L164.162,30.057 L156.635,35.289 C153.956,27.643 149.289,22.802 143.688,21.163 L143.688,14.061 L135.011,14.061 L135.011,21.177 C130.651,22.384 126.102,25.355 121.806,30.259 L120.34,31.926 L121.045,34.151 L118.101,34.236 L115.897,38.609 C115.108,40.053 114.39,41.574 113.798,43.129 L113.798,43.129 Z M164.162,70.084 L164.162,73.634 L143.688,73.634 L143.688,65.417 C146.967,65.64 150.608,66.157 152.143,66.463 C156.189,67.586 160.2,68.766 164.162,70.084 L164.162,70.084 Z M168.215,0.25 L204.621,0.25 L219.109,10.985 L219.109,58.42 L213.006,61.043 C207.976,58.874 202.919,56.704 197.855,54.584 L197.855,14.061 L189.184,14.061 L189.184,50.894 C182.194,47.95 175.225,45.027 168.215,42.167 L168.215,0.25 L168.215,0.25 Z M174.403,73.634 L168.215,73.634 L168.215,71.43 C170.28,72.155 172.345,72.895 174.403,73.634 L174.403,73.634 Z M253.535,14.061 L244.333,14.061 L244.333,47.754 C237.33,50.663 230.341,53.614 223.351,56.586 L223.351,10.985 L237.169,0.25 L260.05,0.25 L274.134,10.985 L274.134,26.674 C273.632,27.253 273.192,27.888 272.738,28.501 L253.535,28.501 L253.535,14.061 L253.535,14.061 Z M253.535,43.945 L253.535,42.195 L257.72,42.195 L253.535,43.945 L253.535,43.945 Z M266.942,68.444 L260.05,73.634 L251.623,73.634 C256.66,71.786 261.78,70.049 266.942,68.444 L266.942,68.444 Z M291.461,0.25 L314.209,0.25 L328.411,10.985 L328.411,63.045 L314.977,73.634 L291.461,73.634 L280.796,65.535 C283.593,65.298 286.327,65.159 287.583,65.494 C289.969,67.468 293.024,68.158 296.051,67.468 C298.877,67.196 301.744,66.422 304.29,65.138 C307.931,63.324 310.959,60.485 312.514,56.663 C315.054,50.573 313.177,44.12 310.136,38.609 L307.903,34.236 L307.443,34.229 L307.443,14.061 L298.744,14.061 L298.744,25.098 C291.231,19.461 283.467,19.217 277.524,23.514 L277.524,10.985 L291.461,0.25 L291.461,0.25 Z M362.363,44.253 L353.692,44.253 L353.692,73.634 L332.451,73.634 L332.451,0.25 L368.626,0.25 L382.808,10.985 L382.808,30.057 L372.344,37.353 L382.808,44.253 L382.808,73.634 L362.363,73.634 L362.363,44.253 L362.363,44.253 Z M362.363,14.061 L353.692,14.061 L353.692,30.44 L362.363,30.44 L362.363,14.061 L362.363,14.061 Z" id="Shape"></path>
        </g>
    </g>
</svg>