<?xml version="1.0" standalone="no"?>
<!DOCTYPE svg PUBLIC "-//W3C//DTD SVG 1.1//EN" "http://www.w3.org/Graphics/SVG/1.1/DTD/svg11.dtd">
<svg width="100%" height="100%" viewBox="0 0 600 600" version="1.1" xmlns="http://www.w3.org/2000/svg" xmlns:xlink="http://www.w3.org/1999/xlink" xml:space="preserve" style="fill-rule:evenodd;clip-rule:evenodd;stroke-linejoin:round;stroke-miterlimit:1.41421;">
    <g id="Capa 1" transform="matrix(1,0,0,1,-95.9987,-3.1243)">
        <path d="M569.08,223.124L608.109,223.124L608.109,237.061L590.335,237.061L590.335,250.888L605.012,250.888L605.012,264.713L590.335,264.713L590.335,282.837L608.597,282.837L608.597,296.634L569.08,296.634L569.08,223.124ZM478.375,286.491C476.38,287.043 474.399,286.631 472.836,285.145C470.45,283.345 458.85,284.957 455.913,285.606L455.809,285.606C443.308,289.003 431.184,293.433 419.242,298.462C433.054,304.419 446.873,310.488 460.684,316.508L460.88,316.599L461.256,315.922L462.115,315.329C473.136,307.809 486.104,307.21 488.071,324.035L488.846,330.76L486.53,330.083L488.336,331.45L488.057,333.933C487.36,339.912 485.141,346.273 479.281,348.848C476.652,349.991 473.784,350.222 470.981,349.81C468.916,349.51 466.83,348.848 464.939,347.962C463.342,347.487 462.219,344.167 461.416,342.765C460.238,341.474 457.601,339.667 456.59,339.026C454.706,337.826 452.669,336.682 450.668,335.629C449.795,335.175 448.456,334.617 447.57,334.122L447.465,334.066L447.27,333.961C430.117,325.953 413.208,317.115 396.027,308.932C378.838,317.115 361.915,325.953 344.748,333.968L344.546,334.066L344.441,334.136C343.555,334.617 342.202,335.182 341.337,335.629C339.335,336.682 337.34,337.826 335.401,339.026C334.424,339.667 331.773,341.474 330.588,342.765C329.771,344.153 328.655,347.487 327.065,347.962C325.182,348.848 323.096,349.51 321.01,349.81C318.276,350.222 315.346,349.991 312.736,348.848C306.877,346.273 304.645,339.912 303.955,333.961L303.683,331.45L305.468,330.083L303.18,330.76L303.926,324.035C305.901,307.195 318.875,307.809 329.862,315.329L330.734,315.936L331.118,316.634L331.341,316.529C345.132,310.488 358.937,304.419 372.763,298.462C360.82,293.433 348.697,289.003 336.21,285.606L336.091,285.606C333.155,284.957 321.568,283.345 319.182,285.145C317.634,286.617 315.639,287.043 313.651,286.491C311.23,286.331 308.691,285.627 306.514,284.559C303.759,283.178 301.38,281.058 300.208,278.163C298.151,273.245 299.965,267.853 302.455,263.479L303.612,261.177L309.409,261.051L307.833,255.875C321.101,240.661 333.538,247.944 336.97,263.646L337.375,263.786L337.389,263.862L338.7,264.386C357.89,272.17 376.983,280.228 396.006,288.403C415.022,280.228 434.128,272.17 453.311,264.386L454.615,263.862L454.615,263.786L455.027,263.646C458.459,247.944 470.89,240.661 484.193,255.861L482.609,261.051L488.399,261.177L489.585,263.479C492.027,267.853 493.84,273.245 491.789,278.149C490.61,281.058 488.266,283.164 485.504,284.559C483.314,285.634 480.838,286.331 478.375,286.491ZM243.238,361.118L243.238,303.924L263.628,303.924L263.628,364.194L250.479,374.385L227.696,374.385L214.289,364.194L214.289,303.924L234.658,303.924L234.658,361.118L243.238,361.118ZM267.262,303.924L287.645,303.924L287.645,361.118L305.81,361.118L305.81,374.385L267.262,374.385L267.262,303.924ZM298.374,303.924L341.449,303.924L341.449,307.74L331.934,311.89C319.608,303.568 306.138,303.966 301.408,317.136L298.374,317.136L298.374,303.924ZM330.05,350.899L330.05,374.385L309.898,374.385L309.898,351.923C310.296,352.112 310.679,352.335 311.126,352.509C314.446,353.954 318.059,354.26 321.603,353.78C323.968,353.396 326.374,352.67 328.564,351.651C329.123,351.47 329.59,351.219 330.05,350.899ZM345.097,303.924L350.231,303.924L345.097,306.128L345.097,303.924ZM365.459,328.401L365.459,374.385L345.097,374.385L345.097,338.265C345.432,338.098 345.773,337.958 346.109,337.735L346.457,337.575C352.854,334.603 359.153,331.506 365.459,328.401ZM403.428,337.909L407.055,318.705C415.977,323.135 424.878,327.579 433.891,331.959L433.891,374.385L415.349,374.385L415.349,329.665L414.366,329.665L405.988,374.385L398.405,374.385L389.895,329.665L388.939,329.665L388.939,374.385L370.517,374.385L370.517,325.876C378.992,321.691 387.453,317.45 396.027,313.355L396.243,313.446L401.433,337.909L403.428,337.909ZM470.311,361.376L458.536,361.376L456.792,374.385L436.912,374.385L443.601,336.668L445.561,337.568L445.854,337.721C446.845,338.265 447.842,338.67 448.84,339.214C450.73,340.177 452.621,341.237 454.448,342.402C455.473,343.072 457.204,344.195 458.173,345.15C459.54,347.675 460.419,350.577 463.453,351.651C465.637,352.684 468.03,353.396 470.416,353.78C473.966,354.26 477.607,353.954 480.865,352.509C483.397,351.386 485.434,349.768 487.039,347.815L491.908,374.385L471.909,374.385L470.311,361.376ZM448.868,306.965L449.419,303.778L478.891,303.778L479.421,306.673C473.68,305.486 466.725,307.447 460.085,311.877L448.868,306.965ZM486.557,303.924L529.66,303.924L529.66,317.136L518.234,317.136L518.234,374.385L498.081,374.385L498.081,317.136L490.61,317.136C489.613,314.381 488.224,312.163 486.557,310.488L486.557,303.924ZM533.741,303.778L571.179,303.778L571.179,317.136L554.124,317.136L554.124,330.39L568.236,330.39L568.236,343.671L554.124,343.671L554.124,361.118L571.703,361.118L571.703,374.385L533.741,374.385L533.741,303.778ZM213.326,253.057L213.326,223.25L234.309,223.25L234.309,296.634L213.326,296.634L213.326,266.862L204.621,266.862L204.621,296.634L183.4,296.634L183.4,223.25L204.621,223.25L204.621,253.057L213.326,253.057ZM271.615,283.095L259.331,283.095L257.531,296.634L236.827,296.634L249.879,223.124L280.558,223.124L294.118,296.634L273.282,296.634L271.615,283.095ZM264.095,238.98L260.872,269.282L270.074,269.282L266.097,238.98L264.095,238.98ZM318.011,290.321L318.011,296.634L296.798,296.634L296.798,280.332C298.416,283.813 301.269,286.429 304.743,288.138C307.275,289.407 310.114,290.196 312.967,290.468C314.676,290.851 316.42,290.803 318.011,290.321ZM296.798,266.129L296.798,223.25L332.973,223.25L347.162,233.985L347.162,253.057L339.635,258.289C336.956,250.643 332.289,245.802 326.688,244.163L326.688,237.061L318.011,237.061L318.011,244.177C313.651,245.384 309.102,248.355 304.806,253.259L303.34,254.926L304.045,257.151L301.101,257.236L298.897,261.609C298.108,263.053 297.39,264.574 296.798,266.129ZM347.162,293.084L347.162,296.634L326.688,296.634L326.688,288.417C329.967,288.64 333.608,289.157 335.143,289.463C339.189,290.586 343.2,291.766 347.162,293.084ZM351.215,223.25L387.621,223.25L402.109,233.985L402.109,281.42L396.006,284.043C390.976,281.874 385.919,279.704 380.855,277.584L380.855,237.061L372.184,237.061L372.184,273.894C365.194,270.95 358.225,268.027 351.215,265.167L351.215,223.25ZM357.403,296.634L351.215,296.634L351.215,294.43C353.28,295.155 355.345,295.895 357.403,296.634ZM436.535,237.061L427.333,237.061L427.333,270.754C420.33,273.663 413.341,276.614 406.351,279.586L406.351,233.985L420.169,223.25L443.05,223.25L457.134,233.985L457.134,249.674C456.632,250.253 456.192,250.888 455.738,251.501L436.535,251.501L436.535,237.061ZM436.535,266.945L436.535,265.195L440.72,265.195L436.535,266.945ZM449.942,291.444L443.05,296.634L434.623,296.634C439.66,294.786 444.78,293.049 449.942,291.444ZM474.461,223.25L497.209,223.25L511.411,233.985L511.411,286.045L497.977,296.634L474.461,296.634L463.796,288.535C466.593,288.298 469.327,288.159 470.583,288.494C472.969,290.468 476.024,291.158 479.051,290.468C481.877,290.196 484.744,289.422 487.29,288.138C490.931,286.324 493.959,283.485 495.514,279.663C498.054,273.573 496.177,267.12 493.136,261.609L490.903,257.236L490.443,257.229L490.443,237.061L481.744,237.061L481.744,248.098C474.231,242.461 466.467,242.217 460.524,246.514L460.524,233.985L474.461,223.25ZM545.363,267.253L536.692,267.253L536.692,296.634L515.451,296.634L515.451,223.25L551.626,223.25L565.808,233.985L565.808,253.057L555.344,260.353L565.808,267.253L565.808,296.634L545.363,296.634L545.363,267.253ZM545.363,237.061L536.692,237.061L536.692,253.44L545.363,253.44L545.363,237.061Z" style="fill:white;"/>
        <g transform="matrix(0.783283,4.31408e-32,4.31408e-32,0.783283,85.8212,113.186)">
            <path d="M535.411,377.508L535.411,369.276L541.739,369.276L541.739,372.372L550.181,372.372L550.181,366.349L541.601,366.349C537.702,366.428 535.707,364.427 535.628,360.474L535.628,356.081C535.628,354.297 536.173,352.873 537.3,351.789C538.417,350.702 539.887,350.14 541.721,350.14L556.026,350.14L556.026,358.43L550.181,358.43L550.181,355.293L541.739,355.293L541.739,361.172L549.947,361.172C552.064,361.172 553.662,361.662 554.716,362.656C555.792,363.697 556.307,365.215 556.307,367.298L556.307,371.826C556.307,373.568 555.77,374.985 554.643,375.975C553.526,377.018 552.013,377.508 550.059,377.508L535.411,377.508ZM325.598,355.486L311.839,388.437L305.76,388.437L312.653,371.783L305.76,355.486L302.704,355.486L302.704,350.374L310.095,350.374L315.708,364.208L321.376,350.374L328.894,350.374L328.894,355.486L325.598,355.486ZM292.759,366.873L283.996,366.873L283.996,372.404L292.759,372.404L292.759,366.873ZM301.972,377.285L283.586,377.285C282.772,377.285 281.937,377.091 281.115,376.728C280.288,376.295 279.629,375.788 279.116,375.185C278.205,374.141 277.78,372.823 277.78,371.214L277.78,368.183C277.78,366.149 278.349,364.595 279.573,363.624C280.762,362.634 282.658,362.121 285.143,362.095L292.645,361.99L292.645,355.293L283.988,355.293L283.988,359.244L278.115,359.244L278.115,355.984C278.115,354.192 278.714,352.77 279.854,351.705C280.996,350.687 282.573,350.14 284.533,350.14L292.488,350.14C294.504,350.14 296.027,350.711 297.115,351.804C298.187,352.895 298.765,354.467 298.765,356.459L298.765,372.073L301.972,372.073L301.972,377.285ZM275.392,377.285L262.775,377.285L262.775,372.172L265.945,372.172L265.945,347.664L262.775,347.664L262.775,342.477L272.127,342.477L272.127,372.172L275.392,372.172L275.392,377.285ZM253.618,372.172L253.618,355.486L245.061,355.486L245.061,372.172L253.618,372.172ZM245.061,377.285L245.061,388.437L238.821,388.437L238.821,355.486L235.686,355.486L235.686,350.374L252.445,350.374C254.966,350.374 256.823,350.919 258.009,351.988C259.14,353.034 259.776,354.754 259.776,357.086L259.776,371.358C259.776,373.149 259.245,374.615 258.129,375.659C257.013,376.752 255.548,377.285 253.618,377.285L245.061,377.285ZM439.685,377.285L430.424,377.285L430.424,355.486L421.756,355.486L421.756,372.172L424.852,372.172L424.852,377.285L412.372,377.285L412.372,372.172L415.748,372.172L415.748,347.664L412.372,347.664L412.372,342.477L421.756,342.477L421.756,350.374L429.923,350.374C432.193,350.374 433.84,350.855 434.941,351.883C436.054,352.873 436.565,354.467 436.565,356.588L436.565,372.172L439.685,372.172L439.685,377.285ZM409.54,377.285L404.87,377.285C402.892,377.285 401.445,376.778 400.496,375.788C399.556,374.775 399.075,373.248 399.075,371.199L399.075,355.486L395.888,355.486L395.888,350.374L399.075,350.374L399.075,342.477L405.33,342.477L405.33,350.374L409.429,350.374L409.429,355.486L405.33,355.486L405.33,372.172L409.54,372.172L409.54,377.285ZM388.384,342.562C389.264,342.562 390.018,342.895 390.664,343.498C391.315,344.132 391.626,344.896 391.626,345.839C391.626,346.698 391.315,347.488 390.664,348.139C390.009,348.772 389.23,349.109 388.332,349.109C387.448,349.109 386.643,348.772 386.007,348.139C385.357,347.488 385.034,346.698 385.034,345.822C385.034,344.888 385.357,344.1 386.007,343.483C386.651,342.831 387.461,342.562 388.384,342.562ZM394.772,377.285L382.067,377.285L382.067,372.172L385.357,372.172L385.357,355.486L382.067,355.486L382.067,350.374L391.555,350.374L391.555,372.172L394.772,372.172L394.772,377.285ZM373.317,377.285L365.196,377.285L360.438,359.169L355.684,377.285L347.604,377.285L344.008,355.486L340.699,355.486L340.699,350.374L349.397,350.374L352.122,370.594L357.486,350.374L363.468,350.374L368.589,370.536L371.644,350.374L380.282,350.374L380.282,355.486L376.984,355.486L373.317,377.285ZM532.83,377.285L520.204,377.285L520.204,372.172L523.388,372.172L523.388,347.664L520.204,347.664L520.204,342.477L529.555,342.477L529.555,372.172L532.83,372.172L532.83,377.285ZM518.411,377.285L505.82,377.285L505.82,372.172L508.981,372.172L508.981,347.664L505.82,347.664L505.82,342.477L515.165,342.477L515.165,372.172L518.411,372.172L518.411,377.285ZM494.837,366.873L486.13,366.873L486.13,372.404L494.837,372.404L494.837,366.873ZM504.068,377.285L485.68,377.285C484.866,377.285 484.046,377.091 483.234,376.728C482.399,376.295 481.746,375.788 481.216,375.185C480.331,374.141 479.841,372.823 479.841,371.214L479.841,368.183C479.841,366.149 480.46,364.595 481.649,363.624C482.873,362.634 484.722,362.121 487.26,362.095L494.764,361.99L494.764,355.293L486.047,355.293L486.047,359.244L480.219,359.244L480.219,355.984C480.219,354.192 480.79,352.77 481.941,351.705C483.066,350.687 484.681,350.14 486.635,350.14L494.597,350.14C496.581,350.14 498.11,350.711 499.211,351.804C500.287,352.895 500.836,354.467 500.836,356.459L500.836,372.073L504.068,372.073L504.068,377.285ZM469.943,372.172L469.943,355.486L461.581,355.486L461.581,372.172L469.943,372.172ZM455.395,377.285L455.395,347.664L452.214,347.664L452.214,342.477L461.581,342.477L461.581,350.374L470.417,350.374C472.201,350.374 473.619,350.919 474.639,351.988C475.674,353.034 476.215,354.497 476.215,356.388L476.215,371.358C476.215,373.175 475.661,374.654 474.613,375.732C473.586,376.752 472.137,377.285 470.28,377.285L455.395,377.285Z" style="fill:white;"/>
        </g>
    </g>
</svg>
