<?xml version="1.0" encoding="UTF-8"?>
<svg width="800px" height="320px" viewBox="0 0 800 320" version="1.1" xmlns="http://www.w3.org/2000/svg" xmlns:xlink="http://www.w3.org/1999/xlink">
    <!-- Generator: Sketch 42 (36781) - http://www.bohemiancoding.com/sketch -->
    <title>Artboard</title>
    <desc>Created with Sketch.</desc>
    <defs></defs>
    <g id="Page-1" stroke="none" stroke-width="1" fill="none" fill-rule="evenodd">
        <g id="Artboard" fill-rule="nonzero" fill="#E6E6E6">
            <g id="ULTIMATE" transform="translate(54.129353, 164.653102)">
                <polygon id="E" points="657.196227 56.7312698 688.310394 56.7312698 688.310394 89.0353662 657.196227 89.0353662 657.196227 122.058186 693.906468 122.058186 693.906468 154.362283 620.53506 154.362283 620.53506 0 693.906468 0 693.906468 32.3040964 657.196227 32.3040964"></polygon>
                <polygon id="T" points="591.834091 154.362283 555.172924 154.362283 555.172924 32.3040964 532.788631 32.3040964 532.788631 0 614.218384 0 614.218384 32.3040964 591.834091 32.3040964"></polygon>
                <path d="M481.062637,96.0483551 C485.5241,98.0492707 490.083534,99.3981577 494.496813,100.027609 C501.528897,101.041999 508.254627,100.273041 514.217077,97.7258853 C518.5062,95.8759899 522.132006,93.2386784 525.123616,89.838227 L527.889743,86.6940747 L539.369066,154.362283 L501.225593,154.362283 L497.867949,126.42643 L475.465027,126.42643 L472.555069,154.362283 L434.437636,154.362283 L446.850438,69.2451487 L449.279116,70.3671432 C451.507033,71.3858221 451.62152,71.4393955 452.200936,71.7362191 C456.50706,73.9588188 460.26637,76.0717946 463.528196,78.1114604 C466.203906,79.7795622 469.473485,82.1513098 471.167816,83.6825082 L471.445051,83.9330503 L471.610975,84.2663264 C471.777521,84.6008514 471.982557,85.0173895 472.240585,85.5445537 C472.405623,85.881786 472.900452,86.8952052 472.879701,86.8527416 C473.085184,87.2732343 473.200002,87.5066853 473.246884,87.5988756 C474.217011,89.5065671 475.052479,90.8839199 475.983559,92.0887137 C476.621928,92.9147451 477.268626,93.6124192 477.942228,94.1967158 C479.200882,95.2010293 480.088082,95.6976467 481.062637,96.0483551 Z" id="A2"></path>
                <path d="M454.885388,14.1478477 L456.948597,0 L513.182846,0 L515.3249,12.6269578 L512.400434,11.9330869 C512.098289,11.8613988 511.793549,11.7941327 511.486233,11.7313021 C500.75918,9.53815843 487.693441,13.1299865 474.764553,21.6853629 L473.863186,22.28182 L472.868021,21.8557082 C468.619117,20.0364037 464.227899,18.1542416 456.28096,14.7463177 L454.885388,14.1478477 Z" id="A1"></path>
                <path d="M380.506696,37.3433325 L382.900537,38.510801 C383.834313,38.9662005 384.829999,39.4519771 385.916718,39.9823338 C386.549166,40.2909906 387.791076,40.897242 389.955735,41.9539975 C392.660676,43.2745203 393.693923,43.7789321 394.171635,44.0120928 C411.039709,52.2450245 421.735827,57.4095601 431.325417,61.9409243 L432.457924,62.4760673 L432.457924,154.362283 L395.796757,154.362283 L395.796757,82.5047553 L383.118993,154.362283 L366.335073,154.362283 L354.003096,82.4957291 L353.655716,154.362283 L317.004045,154.362283 L317.004045,34.8989842 L318.117388,34.3583469 C329.542999,28.8100931 337.320957,25.0833381 345.397035,21.2896809 L346.250981,20.8885481 L347.104731,21.2900897 C353.320517,24.21354 359.822745,27.3185807 367.42128,30.9905114 L368.324554,31.4270114 L375.164384,68.4056319 L380.506696,37.3433325 Z" id="M"></path>
                <path d="M265.520171,154.362283 L265.520171,59.8455878 L266.64793,59.3090581 C274.552056,55.548685 283.541998,51.2057194 295.791506,45.2353246 C296.85478,44.7170859 297.977247,44.1697848 299.31148,43.519036 L302.181338,42.1193134 L302.181338,154.362283 L265.520171,154.362283 Z" id="I"></path>
                <path d="M236.819202,154.362283 L200.158035,154.362283 L200.158035,99.6741146 L201.698734,99.3207398 C204.905369,98.5852655 208.126581,97.4945658 211.206164,96.1035174 L211.349766,96.0452363 C213.274442,95.3495653 214.874738,94.0780874 216.407357,92.0879234 C217.329365,90.8906601 218.154942,89.5274724 219.125949,87.6207509 C219.146076,87.5812291 219.854365,86.1375529 220.119794,85.5996758 C220.392054,85.0481133 220.604607,84.6206138 220.773692,84.2850997 L220.938728,83.9576206 L221.211638,83.7106734 C222.81501,82.2598356 225.797909,80.0865664 228.876663,78.0962321 C230.519691,77.0992354 232.176965,76.1268901 233.839954,75.1842036 L236.819202,73.4953793 L236.819202,154.362283 Z" id="T2"></path>
                <path d="M177.773742,12.4330412 L177.773742,0 L259.203495,0 L259.203495,4.85237676 L258.005791,5.36679069 C249.957882,8.82336824 240.101811,13.0643951 219.56521,21.9062742 L218.566467,22.3362754 L217.66213,21.7355904 C204.718403,13.1380222 191.653792,9.52888769 180.918439,11.720726 C180.681806,11.7690393 180.446698,11.8199848 180.213133,11.873554 L177.773742,12.4330412 Z" id="T1"></path>
                <polygon id="L" points="179.963098 122.058186 179.963098 154.362283 106.59169 154.362283 106.59169 0 143.252857 0 143.252857 122.058186"></polygon>
                <polygon id="U" points="55.1078155 122.058186 55.1078155 0 91.7689829 0 91.7689829 131.329752 66.8361189 154.362283 24.9753184 154.362283 0.0424543947 131.329752 0.0424543947 2.18628534e-16 36.7036218 0 36.7036218 122.058186"></polygon>
            </g>
            <g id="HARDCORE">
                <polygon id="E" points="763.32942 56.7312698 794.409973 56.7312698 794.409973 89.0353662 763.32942 89.0353662 763.32942 122.058186 800 122.058186 800 154.362283 726.703561 154.362283 726.703561 0 800 0 800 32.3040964 763.32942 32.3040964"></polygon>
                <path d="M659.578512,93.5480808 L659.578512,154.362283 L622.952652,154.362283 L622.952652,0 L687.638751,0 L710.783163,20.4271247 L710.783163,64.3882482 L693.698059,77.6040144 L712.348371,91.9027974 L712.348371,154.362283 L675.722511,154.362283 L675.722511,93.5480808 L659.578512,93.5480808 Z M677.712561,63.2132152 L677.712561,30.3348657 L657.588462,30.3348657 L657.588462,63.2132152 L677.712561,63.2132152 Z" id="R"></path>
                <path d="M580.63517,79.7643125 L582.444235,73.9414268 L580.232343,71.4600757 C577.618788,68.5281313 574.948208,65.9373173 572.23774,63.6941469 L571.5244,63.1037901 L571.5244,32.3040964 L553.14439,32.3040964 L553.14439,53.7723904 L550.879324,53.459641 C538.994347,51.8186212 528.018785,57.2145681 520.151432,68.6024836 L516.518531,73.8610728 L516.518531,23.0331623 L541.42514,0 L583.24365,0 L608.15026,23.0331623 L608.15026,131.329121 L583.24365,154.362283 L541.42514,154.362283 L524.301504,138.526667 L528.488696,137.988026 C531.443437,137.607929 534.486941,137.29514 537.174837,137.103368 C540.81245,136.843838 543.946113,136.78219 546.356141,136.930141 C547.48452,136.999412 548.445045,137.114546 549.167016,137.269007 L549.638833,137.369949 L550.011476,137.673585 C554.232103,141.112632 559.577217,142.313932 565.002818,141.069876 L565.288502,141.025708 C570.619889,140.590685 576.038108,139.101105 580.957418,136.731688 C588.356871,133.063255 593.659886,127.746167 596.400356,121.104918 C600.601284,111.244923 598.915961,100.112789 591.718787,87.4075006 L587.789044,79.9159635 L580.63517,79.7643125 Z" id="O"></path>
                <path d="M465.537481,105.357487 L465.537481,86.1713605 L502.163341,86.1713605 L502.163341,90.5043846 L500.92127,91.0028975 C490.269864,95.2779073 479.420125,99.6763329 468.288054,104.231878 L465.537481,105.357487 Z" id="C2"></path>
                <path d="M447.157471,32.3040964 L447.157471,112.927074 L445.935405,113.432936 C435.398579,117.794549 424.546535,122.319587 413.298835,127.041132 L410.531612,128.202754 L410.531612,23.0331623 L435.438221,0 L477.256731,0 L502.163341,23.0331623 L502.163341,61.529296 L465.537481,61.529296 L465.537481,32.3040964 L447.157471,32.3040964 Z" id="C1"></path>
                <path d="M327.562849,154.362283 L304.09749,154.362283 L304.09749,146.316034 L306.714886,147.176381 C309.988801,148.252528 313.288648,149.372044 316.618892,150.536292 L327.562849,154.362283 Z" id="D2"></path>
                <path d="M340.72335,32.3040964 L340.72335,107.647989 L337.970713,106.517954 C326.792395,101.928939 315.950699,97.5191658 305.337385,93.2450061 L304.09749,92.7456797 L304.09749,0 L370.82261,0 L395.729219,23.0331623 L395.729219,130.551615 L392.96075,129.387273 C381.641614,124.626753 370.79689,120.094066 360.323608,115.746693 L359.10336,115.240178 L359.10336,32.3040964 L340.72335,32.3040964 Z" id="D1"></path>
                <path d="M253.11644,154.362283 L253.11644,136.976694 L255.019886,136.894647 C257.328163,136.795151 260.221349,136.867762 263.535277,137.103463 C269.045176,137.495351 276.069642,138.402925 279.947421,139.190179 L280.066858,139.218251 C282.80395,139.950524 285.549719,140.712084 288.306744,141.503592 L289.7423,141.915722 L289.7423,154.362283 L253.11644,154.362283 Z" id="R3"></path>
                <path d="M200.346582,154.362283 L200.346582,111.728576 L204.177393,120.955638 C204.213192,121.041863 204.249436,121.128008 204.295401,121.236196 C206.97576,127.743107 212.340824,133.09186 219.656971,136.692346 C224.494378,139.023517 229.927469,140.534419 235.161576,141.002672 L236.972441,141.164675 L236.972441,154.362283 L200.346582,154.362283 Z" id="R2"></path>
                <path d="M236.972441,32.3040964 L236.972441,57.8577265 L235.986723,58.4279336 C230.691064,61.4913059 225.472217,65.8615348 220.467893,71.4950676 L218.265594,73.9742688 L220.062398,79.7640294 L212.850623,79.9166968 L208.973688,87.4816304 C206.955936,90.9822058 205.367231,94.3829892 204.218133,97.6831912 L200.346582,108.802261 L200.346582,0 L265.03268,0 L288.177092,20.4271247 L288.177092,64.3882482 L281.135218,69.8353187 L279.938514,68.0999412 C273.490243,58.7491055 264.733991,53.53467 255.034612,53.1877774 L253.116441,53.1191751 L253.11644,32.3040964 L236.972441,32.3040964 Z" id="R1"></path>
                <path d="M134.592357,126.42643 L131.685543,154.362283 L93.6050239,154.362283 L116.091664,0 L172.269408,2.18628534e-16 L198.427337,154.362283 L160.320818,154.362283 L156.966801,126.42643 L134.592357,126.42643 Z M154.933199,96.0915647 L147.554363,30.5497568 L143.753144,30.5497568 L135.703505,96.0915647 L154.933199,96.0915647 Z" id="A"></path>
                <polygon id="H" points="36.6258595 93.1182985 36.6258595 154.362283 0 154.362283 0 0 36.6258595 0 36.6258595 60.8142021 55.0058695 60.8142021 55.0058695 0 91.631729 0 91.631729 154.362283 55.0058695 154.362283 55.0058695 93.1182985"></polygon>
            </g>
            <path d="M564.13237,135.213229 C560.164053,136.28923 556.223585,135.486623 553.116562,132.584741 C548.370496,129.069676 525.294587,132.217612 519.452509,133.484989 C494.379513,140.116745 470.265277,148.767712 446.509086,158.590367 C473.982963,170.22328 501.470765,182.074909 528.944642,193.83085 L530.082425,192.686501 L531.789099,191.528482 C553.711312,176.84332 579.506363,175.671632 583.418984,208.529682 L584.071419,218.407692 L572.556339,224.988462 L583.418984,233.515385 C582.03256,245.189307 577.59083,251.956362 565.936511,256.982906 C560.707086,259.216925 555.002258,259.668025 549.424735,258.863466 C545.317179,258.277622 541.167852,256.982906 537.406405,255.252712 C534.231752,254.327079 531.997958,247.843736 530.400686,245.10589 C528.055501,242.584807 522.810162,239.056072 520.799151,237.802366 C517.051628,235.458989 512.999768,233.224969 509.019517,231.170609 C507.284995,230.282078 504.621548,229.192408 502.857189,228.227718 C468.142875,212.275179 434.506669,195.014256 400.331409,179.03633 C366.140237,195.014256 332.480162,212.275179 298.330761,227.926985 C295.957727,229.192408 293.266433,230.297701 291.545835,231.170609 C287.565584,233.224969 283.595278,235.458989 279.738353,237.802366 C277.794972,239.056072 272.523775,242.584807 270.164666,245.10589 C268.539545,247.814444 266.319675,254.327079 263.156957,255.252712 C259.411423,256.982906 255.262096,258.277622 251.112769,258.863466 C245.674485,259.668025 239.846331,259.216925 234.656688,256.982906 C223.00038,251.956362 218.504944,242.789853 217.132444,231.170609 L224.901989,224.988462 L215.646563,221.660404 L217.132444,208.529682 C221.058988,175.644292 246.867963,176.84332 268.720556,191.528482 L270.455079,192.713841 L271.218905,194.076905 C299.094587,182.074909 326.55454,170.22328 354.056266,158.590367 C330.302063,148.767712 306.185839,140.116745 281.34756,133.484989 C275.270765,132.217612 252.222704,129.069676 247.478626,132.584741 C244.397462,135.459284 240.429146,136.28923 236.474754,135.213229 C231.661057,134.900779 226.608664,133.525998 222.280315,131.440392 C216.800259,128.743556 212.066127,124.601637 209.736855,118.94824 C205.643223,109.346253 209.251507,98.814727 214.204443,90.275071 L216.507857,85.77774 L228.038849,85.533638 L224.901989,75.425872 C251.29378,45.715758 276.034591,59.936151 282.8593,90.601191 L283.694735,91.022998 L286.300496,92.04432 C324.473909,107.246978 362.450399,122.980801 400.289638,138.94701 C438.114953,122.980801 476.11929,107.246978 514.27679,92.04432 L516.872606,91.022998 C524.516836,59.936151 549.245713,45.715758 575.705134,75.398533 L572.556339,85.533638 L584.071419,85.77774 L586.430528,90.275071 C591.287986,98.814727 594.894281,109.346253 590.814573,118.922854 C588.471377,124.601637 583.808854,128.716216 578.314874,131.440392 C573.956688,133.539667 569.031599,134.900779 564.13237,135.213229 Z" id="bones"></path>
        </g>
    </g>
</svg>